# xmcd CD database file
#
# Track frame offsets:
#	150
#	16570
#	31763
#	55023
#	67993
#	88218
#	104635
#	126313
#	144950
#	165827
#	183777
#	198659
#	210766
#	231496
#	270481
#	286634
#	302496
#	313961
#	336884
#
# Disc length: 4771 seconds
#
# Revision: 0
# Processed by: cddbd v1.5.1PL0 Copyright (c) Steve Scherf et al.
# Submitted via: CDex 1.51
#
DISCID=fb12a113
DTITLE=Diversos - Zildo Selecao CD 02
DYEAR=2005
DGENRE=MPB
TTITLE0=A noite do meu bem-Milton Nascimento
TTITLE1=As minhas meninas-Chico Buarque
TTITLE2=Catavento e girasol-Leila Pinheiro
TTITLE3=Clareana-Joyce
TTITLE4=Depois do prazer-SPC
TTITLE5=Malandrinha-Martinho do Vila
TTITLE6=Maria-Gil e Milton Nascimento
TTITLE7=Minha namorada-Vinicius e Quarteto em cy
TTITLE8=Nao chores mais-Gilberto Gil
TTITLE9=Nao existe pecado-Chico Buarque
TTITLE10=Pois eh e outros-Emilio Santiago
TTITLE11=Sem compromisso-Chico Buarque
TTITLE12=Sempre sera e outras-Araketu
TTITLE13=Vapor barato-Gal Costa
TTITLE14=Nem as paredes confesso-Amalia Rodrigues
TTITLE15=Unforgettable-Nat King Cole
TTITLE16=Toro de lagrimas-Ant Carlos e Jocafi
TTITLE17=Eu vou pra lua-Elba e Ze Ramalho
TTITLE18=A brusca poesia da mulher amada-Vinicius
EXTD=YEAR: 2005
EXTT0=
EXTT1=
EXTT2=
EXTT3=
EXTT4=
EXTT5=
EXTT6=
EXTT7=
EXTT8=
EXTT9=
EXTT10=
EXTT11=
EXTT12=
EXTT13=
EXTT14=
EXTT15=
EXTT16=
EXTT17=
EXTT18=
PLAYORDER=
